<svg width="121" height="21" viewBox="0 0 121 21" fill="none" xmlns="http://www.w3.org/2000/svg">
<path d="M1.40909 15V3.36362H5.34091C6.25 3.36362 6.99621 3.51892 7.57955 3.82953C8.16288 4.13635 8.5947 4.5587 8.875 5.09658C9.1553 5.63445 9.29545 6.2462 9.29545 6.9318C9.29545 7.61741 9.1553 8.22536 8.875 8.75567C8.5947 9.28597 8.16477 9.70264 7.58523 10.0057C7.00568 10.3049 6.26515 10.4545 5.36364 10.4545H2.18182V9.1818H5.31818C5.93939 9.1818 6.43939 9.09089 6.81818 8.90908C7.20076 8.72726 7.47727 8.46968 7.64773 8.13635C7.82197 7.79923 7.90909 7.39771 7.90909 6.9318C7.90909 6.46589 7.82197 6.0587 7.64773 5.71021C7.47349 5.36173 7.19508 5.09279 6.8125 4.90339C6.42992 4.71021 5.92424 4.61362 5.29545 4.61362H2.81818V15H1.40909ZM6.88636 9.77271L9.75 15H8.11364L5.29545 9.77271H6.88636ZM21.4616 9.1818C21.4616 10.4091 21.2401 11.4697 20.7969 12.3636C20.3537 13.2576 19.7457 13.947 18.973 14.4318C18.2003 14.9167 17.3177 15.1591 16.3253 15.1591C15.3329 15.1591 14.4503 14.9167 13.6776 14.4318C12.9048 13.947 12.2969 13.2576 11.8537 12.3636C11.4105 11.4697 11.1889 10.4091 11.1889 9.1818C11.1889 7.95453 11.4105 6.89392 11.8537 5.99998C12.2969 5.10605 12.9048 4.41665 13.6776 3.9318C14.4503 3.44695 15.3329 3.20453 16.3253 3.20453C17.3177 3.20453 18.2003 3.44695 18.973 3.9318C19.7457 4.41665 20.3537 5.10605 20.7969 5.99998C21.2401 6.89392 21.4616 7.95453 21.4616 9.1818ZM20.098 9.1818C20.098 8.17423 19.9295 7.32385 19.5923 6.63067C19.259 5.93748 18.8063 5.41286 18.2344 5.0568C17.6662 4.70074 17.0298 4.52271 16.3253 4.52271C15.6207 4.52271 14.9825 4.70074 14.4105 5.0568C13.8423 5.41286 13.3897 5.93748 13.0526 6.63067C12.7192 7.32385 12.5526 8.17423 12.5526 9.1818C12.5526 10.1894 12.7192 11.0398 13.0526 11.7329C13.3897 12.4261 13.8423 12.9507 14.4105 13.3068C14.9825 13.6629 15.6207 13.8409 16.3253 13.8409C17.0298 13.8409 17.6662 13.6629 18.2344 13.3068C18.8063 12.9507 19.259 12.4261 19.5923 11.7329C19.9295 11.0398 20.098 10.1894 20.098 9.1818ZM33.1946 6.99998H31.7855C31.7022 6.59468 31.5563 6.23862 31.348 5.9318C31.1435 5.62498 30.8935 5.36741 30.598 5.15908C30.3063 4.94695 29.9825 4.78786 29.6264 4.6818C29.2704 4.57574 28.8991 4.52271 28.5128 4.52271C27.8082 4.52271 27.17 4.70074 26.598 5.0568C26.0298 5.41286 25.5772 5.93748 25.2401 6.63067C24.9067 7.32385 24.7401 8.17423 24.7401 9.1818C24.7401 10.1894 24.9067 11.0398 25.2401 11.7329C25.5772 12.4261 26.0298 12.9507 26.598 13.3068C27.17 13.6629 27.8082 13.8409 28.5128 13.8409C28.8991 13.8409 29.2704 13.7879 29.6264 13.6818C29.9825 13.5757 30.3063 13.4185 30.598 13.2102C30.8935 12.9981 31.1435 12.7386 31.348 12.4318C31.5563 12.1212 31.7022 11.7651 31.7855 11.3636H33.1946C33.0885 11.9583 32.8954 12.4905 32.6151 12.9602C32.3348 13.4299 31.9863 13.8295 31.5696 14.1591C31.1529 14.4848 30.6851 14.7329 30.1662 14.9034C29.651 15.0738 29.0999 15.1591 28.5128 15.1591C27.5204 15.1591 26.6378 14.9167 25.8651 14.4318C25.0923 13.947 24.4844 13.2576 24.0412 12.3636C23.598 11.4697 23.3764 10.4091 23.3764 9.1818C23.3764 7.95453 23.598 6.89392 24.0412 5.99998C24.4844 5.10605 25.0923 4.41665 25.8651 3.9318C26.6378 3.44695 27.5204 3.20453 28.5128 3.20453C29.0999 3.20453 29.651 3.28976 30.1662 3.46021C30.6851 3.63067 31.1529 3.88067 31.5696 4.21021C31.9863 4.53597 32.3348 4.9337 32.6151 5.40339C32.8954 5.8693 33.0885 6.4015 33.1946 6.99998ZM35.4716 15V3.36362H36.8807V9.13635H37.017L42.2443 3.36362H44.0852L39.1989 8.61362L44.0852 15H42.3807L38.3352 9.59089L36.8807 11.2273V15H35.4716ZM45.9091 15V3.36362H52.9318V4.61362H47.3182V8.54544H52.5682V9.79544H47.3182V13.75H53.0227V15H45.9091ZM54.8352 4.61362V3.36362H63.5625V4.61362H59.9034V15H58.4943V4.61362H54.8352Z" fill="#959595"/>
<path d="M65.3395 15V3.36362H69.9304C70.813 3.36362 71.5649 3.53218 72.1861 3.8693C72.8073 4.20264 73.2808 4.66665 73.6065 5.26135C73.9361 5.85226 74.1009 6.53408 74.1009 7.3068C74.1009 8.07953 73.9342 8.76135 73.6009 9.35226C73.2675 9.94317 72.7846 10.4034 72.152 10.7329C71.5232 11.0625 70.7618 11.2273 69.8679 11.2273H66.9418V9.25567H69.4702C69.9437 9.25567 70.3338 9.17423 70.6406 9.01135C70.9512 8.84468 71.1823 8.61551 71.3338 8.32385C71.4891 8.02839 71.5668 7.68938 71.5668 7.3068C71.5668 6.92044 71.4891 6.58332 71.3338 6.29544C71.1823 6.00377 70.9512 5.77839 70.6406 5.6193C70.33 5.45642 69.9361 5.37498 69.4588 5.37498H67.7997V15H65.3395ZM76.3608 15H73.7244L77.7415 3.36362H80.9119L84.9233 15H82.2869L79.3722 6.02271H79.2812L76.3608 15ZM76.196 10.4261H82.4233V12.3466H76.196V10.4261ZM84.4545 3.36362H87.2102L89.8636 8.37498H89.9773L92.6307 3.36362H95.3864L91.142 10.8863V15H88.6989V10.8863L84.4545 3.36362Z" fill="white"/>
<path fill-rule="evenodd" clip-rule="evenodd" d="M105.203 13.8617L105.199 13.8662L105.196 13.8707C105.018 14.1227 104.62 14.1968 104.308 13.9765C104.058 13.8003 103.983 13.4074 104.196 13.097C104.513 12.6927 104.743 12.2201 104.894 11.7581C105.052 11.2771 105.125 10.7305 105.122 10.1944C105.119 9.65839 105.04 9.11264 104.878 8.63335C104.722 8.17297 104.486 7.70282 104.165 7.30196C103.949 6.99378 104.02 6.60018 104.268 6.42124C104.577 6.1977 104.976 6.26751 105.157 6.51762L105.16 6.52211L105.164 6.52652C105.564 7.05406 105.892 7.6402 106.088 8.21525C106.294 8.89172 106.426 9.54609 106.429 10.1875C106.433 10.8625 106.368 11.5013 106.121 12.1302C105.851 12.8151 105.59 13.34 105.203 13.8617ZM108.095 15.1145L108.103 15.1034L108.11 15.0919C108.997 13.6713 109.509 11.957 109.499 10.1711C109.49 8.38571 108.96 6.67739 108.059 5.26647C107.863 4.95671 107.951 4.59046 108.28 4.35263C108.502 4.1929 108.917 4.24945 109.163 4.57954C110.181 6.19417 110.795 8.14601 110.806 10.1642C110.817 12.2513 110.224 14.1397 109.222 15.7662C108.991 16.085 108.636 16.1743 108.33 15.9936C107.999 15.7507 107.938 15.337 108.095 15.1145ZM113.286 2.45725L113.295 2.4745L113.305 2.49099C114.684 4.7392 115.45 7.33244 115.465 10.1394C115.48 12.945 114.742 15.5452 113.388 17.8072C113.181 18.1409 112.83 18.235 112.475 18.0697C112.152 17.859 112.065 17.5098 112.234 17.1571C113.385 15.1125 114.101 12.703 114.088 10.1467C114.074 7.60177 113.408 5.1962 112.157 3.15138C111.988 2.80223 112.071 2.4545 112.391 2.24139C112.776 2.05726 113.152 2.19222 113.286 2.45725ZM117.369 0.317677L117.375 0.329461L117.382 0.340897C119.053 3.22943 120.035 6.53186 120.054 10.1149C120.073 13.6943 119.128 17.0039 117.491 19.9079C117.283 20.2378 116.934 20.3302 116.581 20.1656C116.259 19.9556 116.171 19.608 116.338 19.2564C117.915 16.5648 118.764 13.4463 118.747 10.1219C118.729 6.78888 117.772 3.68252 116.243 1.01742C116.051 0.628369 116.186 0.247335 116.454 0.111845C116.846 -0.0870303 117.232 0.0479698 117.369 0.317677Z" fill="white"/>
</svg>
