<svg xmlns="http://www.w3.org/2000/svg" width="95" height="13" fill="none" viewBox="0 0 95 13"><path fill="#959595" d="M0.409091 12V0.363621H4.34091C5.25 0.363621 5.99621 0.518924 6.57955 0.82953C7.16288 1.13635 7.5947 1.5587 7.875 2.09658C8.1553 2.63445 8.29545 3.2462 8.29545 3.9318C8.29545 4.61741 8.1553 5.22536 7.875 5.75567C7.5947 6.28597 7.16477 6.70264 6.58523 7.00567C6.00568 7.30491 5.26515 7.45453 4.36364 7.45453H1.18182V6.1818H4.31818C4.93939 6.1818 5.43939 6.09089 5.81818 5.90908C6.20076 5.72726 6.47727 5.46968 6.64773 5.13635C6.82197 4.79923 6.90909 4.39771 6.90909 3.9318C6.90909 3.46589 6.82197 3.0587 6.64773 2.71021C6.47349 2.36173 6.19508 2.09279 5.8125 1.90339C5.42992 1.71021 4.92424 1.61362 4.29545 1.61362H1.81818V12H0.409091ZM5.88636 6.77271L8.75 12H7.11364L4.29545 6.77271H5.88636ZM20.4616 6.1818C20.4616 7.40908 20.2401 8.46968 19.7969 9.36362C19.3537 10.2576 18.7457 10.947 17.973 11.4318C17.2003 11.9167 16.3177 12.1591 15.3253 12.1591C14.3329 12.1591 13.4503 11.9167 12.6776 11.4318C11.9048 10.947 11.2969 10.2576 10.8537 9.36362C10.4105 8.46968 10.1889 7.40908 10.1889 6.1818C10.1889 4.95453 10.4105 3.89392 10.8537 2.99998C11.2969 2.10605 11.9048 1.41665 12.6776 0.931803C13.4503 0.446954 14.3329 0.20453 15.3253 0.20453C16.3177 0.20453 17.2003 0.446954 17.973 0.931803C18.7457 1.41665 19.3537 2.10605 19.7969 2.99998C20.2401 3.89392 20.4616 4.95453 20.4616 6.1818ZM19.098 6.1818C19.098 5.17423 18.9295 4.32385 18.5923 3.63067C18.259 2.93748 17.8063 2.41286 17.2344 2.0568C16.6662 1.70074 16.0298 1.52271 15.3253 1.52271C14.6207 1.52271 13.9825 1.70074 13.4105 2.0568C12.8423 2.41286 12.3897 2.93748 12.0526 3.63067C11.7192 4.32385 11.5526 5.17423 11.5526 6.1818C11.5526 7.18938 11.7192 8.03976 12.0526 8.73294C12.3897 9.42612 12.8423 9.95074 13.4105 10.3068C13.9825 10.6629 14.6207 10.8409 15.3253 10.8409C16.0298 10.8409 16.6662 10.6629 17.2344 10.3068C17.8063 9.95074 18.259 9.42612 18.5923 8.73294C18.9295 8.03976 19.098 7.18938 19.098 6.1818ZM32.1946 3.99998H30.7855C30.7022 3.59468 30.5563 3.23862 30.348 2.9318C30.1435 2.62498 29.8935 2.36741 29.598 2.15908C29.3063 1.94695 28.9825 1.78786 28.6264 1.6818C28.2704 1.57574 27.8991 1.52271 27.5128 1.52271C26.8082 1.52271 26.17 1.70074 25.598 2.0568C25.0298 2.41286 24.5772 2.93748 24.2401 3.63067C23.9067 4.32385 23.7401 5.17423 23.7401 6.1818C23.7401 7.18938 23.9067 8.03976 24.2401 8.73294C24.5772 9.42612 25.0298 9.95074 25.598 10.3068C26.17 10.6629 26.8082 10.8409 27.5128 10.8409C27.8991 10.8409 28.2704 10.7879 28.6264 10.6818C28.9825 10.5757 29.3063 10.4185 29.598 10.2102C29.8935 9.99809 30.1435 9.73862 30.348 9.4318C30.5563 9.1212 30.7022 8.76514 30.7855 8.36362H32.1946C32.0885 8.95832 31.8954 9.49051 31.6151 9.96021C31.3348 10.4299 30.9863 10.8295 30.5696 11.1591C30.1529 11.4848 29.6851 11.7329 29.1662 11.9034C28.651 12.0738 28.0999 12.1591 27.5128 12.1591C26.5204 12.1591 25.6378 11.9167 24.8651 11.4318C24.0923 10.947 23.4844 10.2576 23.0412 9.36362C22.598 8.46968 22.3764 7.40908 22.3764 6.1818C22.3764 4.95453 22.598 3.89392 23.0412 2.99998C23.4844 2.10605 24.0923 1.41665 24.8651 0.931803C25.6378 0.446954 26.5204 0.20453 27.5128 0.20453C28.0999 0.20453 28.651 0.289757 29.1662 0.460212C29.6851 0.630666 30.1529 0.880666 30.5696 1.21021C30.9863 1.53597 31.3348 1.9337 31.6151 2.40339C31.8954 2.8693 32.0885 3.4015 32.1946 3.99998ZM34.4716 12V0.363621H35.8807V6.13635H36.017L41.2443 0.363621H43.0852L38.1989 5.61362L43.0852 12H41.3807L37.3352 6.59089L35.8807 8.22726V12H34.4716ZM44.9091 12V0.363621H51.9318V1.61362H46.3182V5.54544H51.5682V6.79544H46.3182V10.75H52.0227V12H44.9091ZM53.8352 1.61362V0.363621H62.5625V1.61362H58.9034V12H57.4943V1.61362H53.8352Z"/><path fill="#fff" d="M64.3395 12V0.363621H68.9304C69.813 0.363621 70.5649 0.532181 71.1861 0.869303C71.8073 1.20264 72.2808 1.66665 72.6065 2.26135C72.9361 2.85226 73.1009 3.53408 73.1009 4.3068C73.1009 5.07953 72.9342 5.76135 72.6009 6.35226C72.2675 6.94317 71.7846 7.40339 71.152 7.73294C70.5232 8.06248 69.7618 8.22726 68.8679 8.22726H65.9418V6.25567H68.4702C68.9437 6.25567 69.3338 6.17423 69.6406 6.01135C69.9512 5.84468 70.1823 5.61551 70.3338 5.32385C70.4891 5.02839 70.5668 4.68938 70.5668 4.3068C70.5668 3.92044 70.4891 3.58332 70.3338 3.29544C70.1823 3.00377 69.9512 2.77839 69.6406 2.6193C69.33 2.45642 68.9361 2.37498 68.4588 2.37498H66.7997V12H64.3395ZM75.3608 12H72.7244L76.7415 0.363621H79.9119L83.9233 12H81.2869L78.3722 3.02271H78.2812L75.3608 12ZM75.196 7.42612H81.4233V9.34658H75.196V7.42612ZM83.4545 0.363621H86.2102L88.8636 5.37498H88.9773L91.6307 0.363621H94.3864L90.142 7.88635V12H87.6989V7.88635L83.4545 0.363621Z"/></svg>